# xmcd
#
# Track frame offsets: 
#        150
#        16390
#        30858
#        53753
#        74465
#        93168
#        131735
#        152880
#        177970
#        198405
#        223948
#
# Disc length: 3196 seconds
#
# Revision: 1
# Processed by: cddbd v1.5.2PL0 Copyright (c) Steve Scherf et al.
# Submitted via: ExactAudioCopy v1.0b3
#
DISCID=950c7a0b
DTITLE=Roy Gaines - I Got The T-Bone Walker Blues
DYEAR=1999
DGENRE=Blues
TTITLE0=Stormy Monday
TTITLE1=T-Bone Shuffle
TTITLE2=Dream Girl
TTITLE3=I Got a Break Baby
TTITLE4=That Old Feeling Is Gone
TTITLE5=I'm in an Awful Mood
TTITLE6=The Hustle Is Gone
TTITLE7=T-Bone Blues
TTITLE8=Honky Tonk Blues
TTITLE9=West Side Baby
TTITLE10=Stormy Monday [Acoustic]
EXTD=YEAR: 1998
EXTT0=
EXTT1=
EXTT2=
EXTT3=
EXTT4=
EXTT5=
EXTT6=
EXTT7=
EXTT8=
EXTT9=
EXTT10=
PLAYORDER=
